<?xml version="1.0" encoding="UTF-8"?>
<svg xmlns="http://www.w3.org/2000/svg" xmlns:xlink="http://www.w3.org/1999/xlink" viewBox="0 0 243.91 240">
  <defs>
    <style>
      .cls-1 {
        isolation: isolate;
      }

      .cls-2, .cls-3, .cls-4, .cls-5, .cls-6, .cls-7, .cls-8 {
        stroke-width: 0px;
      }

      .cls-3 {
        fill: url(#Gradiente_sem_nome_7);
        mix-blend-mode: multiply;
      }

      .cls-4 {
        fill: #fff;
      }

      .cls-5 {
        fill: #213366;
      }

      .cls-6 {
        fill: #c2012e;
      }

      .cls-7 {
        fill: url(#Gradiente_sem_nome_242);
      }

      .cls-8 {
        fill: #f3d332;
      }

      .cls-9 {
        mask: url(#mask);
      }
    </style>
    <linearGradient id="Gradiente_sem_nome_242" data-name="Gradiente sem nome 242" x1="9.08" y1="86.81" x2="221.86" y2="166.87" gradientUnits="userSpaceOnUse">
      <stop offset=".63" stop-color="#fff"/>
      <stop offset="1" stop-color="#000"/>
    </linearGradient>
    <mask id="mask" x="68.56" y="57.05" width="173.72" height="180.28" maskUnits="userSpaceOnUse">
      <path class="cls-7" d="M242.28,131.46c0,50.29-33.72,92.7-79.77,105.87l-39.88-34.26-.05.08-.19-.27-2.34-3.39-1.26-1.85c-.88-1.28-2.59-2.41-5.52-3.53-3.71-1.41-9.38-2.79-17.76-4.4-4.72-.91-9.79-2.81-13.91-5.19-5.25-3.06-9.02-6.91-10.89-11.14-1.43-3.23-2.15-6.66-2.15-10.19V57.05h33.66v4.76h3.55v-4.76h33.65v4.76h3.55v-4.76h33.65v.64l64.93,60.9c.5,4.22.75,8.52.75,12.87Z"/>
    </mask>
    <linearGradient id="Gradiente_sem_nome_7" data-name="Gradiente sem nome 7" x1="155.42" y1="237.33" x2="155.42" y2="57.05" gradientUnits="userSpaceOnUse">
      <stop offset=".23" stop-color="#211915" stop-opacity=".1"/>
      <stop offset="1" stop-color="#211915" stop-opacity=".2"/>
    </linearGradient>
  </defs>
  <g class="cls-1">
    <g id="Camada_2" data-name="Camada 2">
      <g id="Camada_1-2" data-name="Camada 1">
        <g>
          <g class="cls-9">
            <path class="cls-3" d="M242.28,131.46c0,50.29-33.72,92.7-79.77,105.87l-39.88-34.26-.05.08-.19-.27-2.34-3.39-1.26-1.85c-.88-1.28-2.59-2.41-5.52-3.53-3.71-1.41-9.38-2.79-17.76-4.4-4.72-.91-9.79-2.81-13.91-5.19-5.25-3.06-9.02-6.91-10.89-11.14-1.43-3.23-2.15-6.66-2.15-10.19V57.05h33.66v4.76h3.55v-4.76h33.65v4.76h3.55v-4.76h33.65v.64l64.93,60.9c.5,4.22.75,8.52.75,12.87Z"/>
          </g>
          <g>
            <path class="cls-2" d="M46.22,42c-.99.93-2.12,1.4-3.4,1.41-1.28,0-2.39-.5-3.34-1.5l-4.93-5.23,1.05-.99,4.93,5.23c.68.72,1.47,1.08,2.38,1.09.91,0,1.71-.31,2.4-.96s1.06-1.43,1.1-2.34c.04-.91-.27-1.72-.95-2.44l-4.93-5.23,1.05-.99,4.93,5.23c.95,1.01,1.38,2.15,1.3,3.43-.08,1.28-.62,2.38-1.6,3.3Z"/>
            <path class="cls-2" d="M59.16,31.1l-6.22-9.91,1.19-.75,8.6,3.17c.35.12.73.28,1.14.46.41.18.73.33.96.44l.37.18-5.04-8.02,1.22-.77,6.22,9.91-1.22.77-8.32-3.07c-.4-.14-.83-.31-1.27-.5-.45-.19-.79-.34-1.03-.46l-.37-.18,5,7.96-1.22.77Z"/>
            <path class="cls-2" d="M78.74,20.43l-4.51-10.79,1.33-.56,4.51,10.79-1.33.56Z"/>
            <path class="cls-2" d="M91.72,15.73l-2.68-11.38,1.37-.32,7.11,5.78c.29.23.6.5.93.8s.59.55.76.73l.29.28-2.17-9.22,1.41-.33,2.68,11.38-1.41.33-6.88-5.59c-.33-.27-.68-.56-1.04-.89-.36-.32-.64-.58-.83-.77l-.29-.28,2.15,9.15-1.4.33Z"/>
            <path class="cls-2" d="M112.38,11.89L117.54.04l1.24-.04,5.88,11.52-1.5.05-1.15-2.24-7.14.22-1.01,2.31-1.48.04ZM115.38,8.34l6.06-.18-2.09-4.05-1.14-2.42c-.32.94-.64,1.77-.97,2.5l-1.86,4.15Z"/>
            <path class="cls-2" d="M135.42,10.77l.82-.98c.84,1.2,2.04,1.92,3.6,2.17.78.13,1.52.06,2.2-.2s1.08-.73,1.19-1.41c.04-.25.02-.49-.07-.72-.08-.23-.19-.42-.33-.57-.13-.16-.33-.32-.61-.49-.27-.17-.51-.31-.71-.41s-.48-.22-.82-.36c-.5-.22-.9-.39-1.18-.53-.29-.14-.63-.33-1.03-.58-.4-.25-.7-.49-.89-.74-.2-.25-.36-.55-.47-.92-.12-.37-.14-.76-.07-1.19.16-.96.68-1.66,1.57-2.09.89-.43,1.88-.56,2.96-.39,1.46.24,2.7.88,3.71,1.94l-.84,1c-.84-.89-1.87-1.44-3.08-1.63-.61-.1-1.2-.04-1.8.18-.59.22-.93.63-1.03,1.22-.04.24-.02.46.07.67.08.21.19.39.32.54.13.15.33.3.59.46.27.16.5.29.71.38.21.1.5.22.88.38.47.2.86.38,1.19.54.33.16.67.37,1.04.63.37.26.65.51.85.78.2.26.36.58.47.95.11.37.13.77.06,1.2-.18,1.09-.77,1.86-1.76,2.3-1,.44-2.11.56-3.33.36-1.84-.3-3.24-1.13-4.2-2.49Z"/>
            <path class="cls-2" d="M155.62,15.14l.99-.82c.61,1.33,1.65,2.26,3.13,2.8.75.27,1.48.34,2.2.21s1.19-.52,1.43-1.16c.09-.24.11-.48.07-.72-.04-.24-.11-.45-.22-.62-.1-.18-.27-.38-.5-.59-.23-.22-.44-.4-.62-.53-.18-.14-.43-.3-.74-.51-.45-.3-.81-.55-1.07-.74-.26-.19-.56-.44-.91-.76-.35-.32-.6-.61-.74-.89-.15-.28-.25-.61-.3-.99-.05-.38,0-.78.15-1.18.33-.92.97-1.51,1.93-1.77.96-.26,1.95-.21,2.98.16,1.39.5,2.49,1.36,3.29,2.59l-1.01.83c-.66-1.03-1.57-1.76-2.73-2.17-.58-.21-1.18-.26-1.8-.15s-1.03.45-1.24,1.01c-.08.23-.1.45-.06.67.04.22.11.41.21.58.1.17.26.36.5.56.23.21.44.37.63.51s.45.31.79.54c.42.28.78.53,1.07.75.29.22.59.49.91.81.31.32.55.63.69.92s.24.64.28,1.02c.04.39-.01.78-.16,1.19-.38,1.04-1.09,1.69-2.16,1.94-1.06.25-2.18.16-3.34-.26-1.75-.63-2.98-1.71-3.67-3.22Z"/>
            <path class="cls-2" d="M173.27,24.13l10.75-7.19,1.07.64-1.28,12.87-1.28-.77.24-2.51-6.13-3.68-2.1,1.39-1.27-.76ZM177.71,22.75l5.2,3.12.43-4.54.35-2.65c-.78.61-1.5,1.14-2.17,1.58l-3.81,2.49Z"/>
            <path class="cls-2" d="M195.9,40.43c-1.01-.92-1.56-2.01-1.66-3.28-.1-1.27.31-2.42,1.24-3.44l4.84-5.31,1.07.97-4.84,5.31c-.66.73-.97,1.55-.91,2.46.06.91.44,1.68,1.14,2.32.7.64,1.51.95,2.42.92.91-.03,1.7-.4,2.36-1.13l4.84-5.31,1.07.97-4.84,5.31c-.93,1.02-2.04,1.54-3.32,1.55-1.28.01-2.42-.43-3.42-1.34Z"/>
            <path class="cls-2" d="M220.02,61.31c.56-.33,1.15-.41,1.77-.25.62.16,1.09.52,1.42,1.07.33.56.42,1.15.26,1.77-.16.62-.52,1.09-1.08,1.42-.55.32-1.13.41-1.76.25-.62-.16-1.1-.51-1.43-1.07-.32-.55-.41-1.14-.25-1.76s.52-1.1,1.07-1.43Z"/>
            <path class="cls-2" d="M228.99,96.51c-.31-1.32-.15-2.54.49-3.65.63-1.11,1.62-1.82,2.97-2.14l6.99-1.65.33,1.4-6.99,1.65c-.96.23-1.67.73-2.14,1.51-.46.78-.59,1.64-.37,2.56.22.92.71,1.63,1.48,2.13.77.49,1.63.63,2.59.4l6.99-1.65.33,1.41-6.99,1.65c-1.35.32-2.55.12-3.62-.59-1.07-.71-1.75-1.73-2.06-3.04Z"/>
            <path class="cls-2" d="M231.89,113.17l11.69-.39.05,1.41-7.06,5.84c-.28.24-.6.49-.97.75-.37.27-.65.47-.87.61l-.33.23,9.47-.32.05,1.44-11.69.39-.05-1.44,6.84-5.65c.33-.28.69-.56,1.07-.85.39-.29.69-.51.92-.66l.34-.23-9.4.32-.05-1.44Z"/>
            <path class="cls-2" d="M231.29,135.47l11.6,1.51-.19,1.43-11.6-1.51.19-1.43Z"/>
            <path class="cls-2" d="M228.85,149.07l11.2,3.38-.41,1.35-8.56,3.26c-.34.14-.73.27-1.16.4-.43.13-.77.23-1.01.3l-.39.11,9.07,2.74-.42,1.38-11.2-3.38.42-1.38,8.29-3.15c.4-.16.83-.31,1.29-.46.46-.15.82-.26,1.08-.33l.39-.11-9-2.72.42-1.38Z"/>
            <path class="cls-2" d="M221.83,168.86l7.66,10.42-.59,1.1-12.91-.7.71-1.32,2.52.13,3.4-6.29-1.49-2.03.7-1.3ZM223.4,173.24l-2.88,5.33,4.56.23,2.67.23c-.65-.75-1.21-1.45-1.68-2.1l-2.66-3.69Z"/>
            <path class="cls-2" d="M211.21,189.35l.44,1.2c-1.46.12-2.69.79-3.69,2.01-.5.61-.82,1.28-.93,2s.09,1.3.62,1.74c.19.16.41.26.65.3.24.04.46.04.66,0,.2-.04.45-.13.73-.28.28-.15.52-.28.71-.41.19-.13.43-.3.72-.52.44-.32.79-.58,1.05-.76.27-.18.61-.38,1.02-.6s.78-.35,1.09-.4c.31-.05.66-.03,1.03.05.38.08.73.26,1.06.54.75.62,1.09,1.42,1.02,2.41s-.46,1.91-1.16,2.75c-.94,1.14-2.12,1.88-3.54,2.23l-.44-1.23c1.2-.28,2.18-.89,2.96-1.84.39-.47.64-1.02.74-1.64.11-.62-.07-1.12-.54-1.51-.19-.15-.39-.25-.61-.28s-.43-.03-.62,0c-.19.04-.43.13-.7.28-.27.15-.5.29-.69.43-.19.13-.45.32-.77.57-.41.3-.76.56-1.07.76-.31.2-.66.4-1.07.58-.41.19-.77.3-1.1.34-.33.04-.68.01-1.06-.08-.38-.09-.73-.28-1.07-.55-.86-.7-1.22-1.6-1.1-2.68.12-1.08.58-2.1,1.36-3.06,1.19-1.44,2.61-2.23,4.27-2.37Z"/>
            <path class="cls-2" d="M197.27,204.61l.21,1.26c-1.46-.14-2.79.29-3.99,1.31-.61.51-1.04,1.11-1.28,1.8-.25.69-.15,1.29.29,1.82.16.19.36.33.59.42.23.08.44.13.65.13s.46-.05.77-.14c.31-.09.56-.18.77-.27.21-.09.48-.22.81-.39.49-.24.88-.42,1.17-.55s.66-.26,1.11-.4c.45-.14.83-.21,1.14-.2.32.01.65.09,1,.24.35.15.67.39.95.72.63.75.81,1.6.56,2.56-.25.96-.8,1.79-1.64,2.5-1.13.95-2.43,1.47-3.89,1.55l-.21-1.29c1.23-.06,2.31-.48,3.25-1.27.47-.4.81-.89,1.03-1.48.22-.59.13-1.12-.25-1.58-.16-.18-.34-.31-.55-.39-.21-.07-.42-.11-.61-.11s-.44.05-.74.15c-.29.1-.55.2-.76.29-.21.1-.5.24-.86.42-.45.22-.85.41-1.19.55-.34.14-.72.27-1.15.38-.43.11-.81.16-1.15.14-.33-.02-.67-.11-1.03-.27-.35-.16-.67-.4-.95-.74-.71-.85-.91-1.79-.59-2.84.32-1.04.95-1.97,1.9-2.76,1.43-1.2,2.97-1.72,4.63-1.56Z"/>
            <path class="cls-2" d="M180.65,215.36l.84,12.91-1.09.6-10.5-7.55,1.31-.73,2.05,1.46,6.25-3.46-.15-2.51,1.29-.72ZM179.62,219.9l-5.31,2.94,3.72,2.65,2.12,1.63c-.14-.98-.24-1.87-.28-2.67l-.25-4.55Z"/>
            <path class="cls-2" d="M155.19,226.79c1.3-.41,2.52-.34,3.67.21,1.15.55,1.94,1.49,2.35,2.8l2.17,6.85-1.38.44-2.17-6.85c-.3-.94-.85-1.61-1.67-2.02s-1.68-.46-2.58-.18c-.91.29-1.58.83-2.01,1.63-.43.8-.5,1.67-.21,2.61l2.17,6.85-1.38.44-2.17-6.85c-.42-1.32-.31-2.54.32-3.65.63-1.12,1.59-1.88,2.87-2.28Z"/>
            <path class="cls-2" d="M125.04,237.11c0,.65-.22,1.2-.67,1.66-.45.45-1,.68-1.64.69-.65,0-1.2-.22-1.66-.67s-.68-1-.69-1.65c0-.64.22-1.19.67-1.65.45-.46,1-.69,1.65-.7.64,0,1.19.22,1.65.67.46.45.69,1,.7,1.64Z"/>
            <path class="cls-2" d="M90.08,227.23c1.3.39,2.27,1.14,2.91,2.24.64,1.1.76,2.32.36,3.64l-2.07,6.88-1.38-.42,2.07-6.88c.28-.94.2-1.81-.24-2.61-.45-.79-1.12-1.33-2.03-1.6-.91-.27-1.77-.2-2.58.21-.81.42-1.36,1.1-1.64,2.04l-2.07,6.88-1.38-.42,2.07-6.88c.4-1.33,1.17-2.27,2.32-2.83,1.15-.56,2.37-.65,3.66-.26Z"/>
            <path class="cls-2" d="M74.2,221.4l-5.53,10.31-1.24-.67-1.5-9.04c-.06-.36-.12-.77-.17-1.22-.05-.45-.08-.8-.09-1.05l-.03-.4-4.48,8.35-1.27-.68,5.53-10.31,1.27.68,1.45,8.75c.07.42.14.87.2,1.35s.09.86.11,1.13l.03.4,4.44-8.29,1.27.68Z"/>
            <path class="cls-2" d="M55.24,209.68l-7.14,9.26-1.14-.88,7.14-9.26,1.14.88Z"/>
            <path class="cls-2" d="M44.72,200.71l-8.55,7.98-.96-1.03,1.48-9.04c.05-.36.13-.77.23-1.21.1-.44.18-.78.25-1.03l.1-.39-6.92,6.47-.99-1.05,8.55-7.98.99,1.06-1.44,8.75c-.07.42-.15.87-.25,1.34s-.19.84-.26,1.1l-.1.39,6.87-6.42.99,1.06Z"/>
            <path class="cls-2" d="M31.11,184.71l-12.86,1.41-.65-1.06,7.08-10.83.78,1.28-1.37,2.11,3.74,6.09,2.5-.27.77,1.26ZM26.54,183.87l-3.17-5.17-2.48,3.83-1.53,2.19c.97-.19,1.86-.32,2.65-.4l4.53-.45Z"/>
            <path class="cls-2" d="M18.7,165.26l-1.26-.22c.62-1.32.66-2.72.11-4.2-.28-.74-.7-1.35-1.26-1.81-.56-.46-1.17-.58-1.81-.34-.24.09-.43.23-.59.41s-.27.38-.34.57c-.07.19-.11.45-.13.77-.02.32-.02.59,0,.82.01.23.04.52.09.89.06.54.1.97.13,1.29s.02.71,0,1.18c-.02.47-.08.85-.2,1.14-.11.29-.3.58-.56.87-.26.28-.59.5-1,.65-.91.34-1.78.23-2.6-.33-.82-.56-1.42-1.36-1.8-2.38-.52-1.39-.57-2.78-.15-4.18l1.28.23c-.36,1.17-.32,2.34.1,3.49.21.57.56,1.06,1.05,1.47.48.4,1.01.5,1.57.29.23-.08.41-.21.55-.39.14-.17.24-.35.31-.54.07-.18.1-.43.11-.74,0-.31,0-.58-.02-.81-.02-.23-.06-.55-.1-.95-.06-.5-.1-.94-.12-1.3-.02-.36-.01-.77.03-1.21.04-.44.13-.82.26-1.12s.33-.6.6-.88c.27-.28.61-.49,1.01-.65,1.04-.39,1.99-.25,2.87.39.88.65,1.53,1.55,1.96,2.72.65,1.75.62,3.38-.09,4.89Z"/>
            <path class="cls-2" d="M12.5,145.55l-1.2-.45c.86-1.19,1.15-2.56.88-4.11-.14-.78-.44-1.45-.91-2.01-.47-.56-1.04-.78-1.72-.66-.25.04-.47.14-.65.3-.19.15-.33.32-.44.5-.1.18-.19.42-.27.73-.07.31-.13.58-.15.8-.03.22-.05.52-.07.89-.04.54-.08.98-.12,1.29-.04.32-.11.71-.21,1.16-.1.46-.24.82-.41,1.09-.17.27-.41.52-.71.75-.31.23-.68.38-1.1.46-.96.17-1.79-.1-2.49-.81-.7-.7-1.15-1.59-1.33-2.67-.25-1.46-.04-2.84.62-4.14l1.22.47c-.57,1.09-.75,2.24-.54,3.45.1.6.36,1.15.76,1.64.4.49.9.68,1.49.58.24-.04.44-.13.61-.28.17-.14.3-.3.4-.47.1-.17.18-.41.24-.71s.11-.57.13-.8c.02-.23.05-.55.07-.96.04-.51.08-.94.12-1.3.05-.36.13-.76.25-1.19.12-.43.27-.78.46-1.06.18-.28.43-.53.75-.75.31-.23.69-.38,1.11-.45,1.09-.19,2.01.12,2.75.92.74.8,1.22,1.81,1.43,3.03.32,1.84-.01,3.43-.99,4.79Z"/>
            <path class="cls-2" d="M11.58,125.78l-11.58-5.76.03-1.24,11.8-5.28-.03,1.5-2.3,1.04-.15,7.15,2.25,1.13-.03,1.48ZM8.18,122.61l.12-6.06-4.15,1.88-2.48,1.01c.92.37,1.74.73,2.45,1.1l4.06,2.07Z"/>
            <path class="cls-2" d="M14.47,98c-.29,1.33-.97,2.35-2.02,3.07-1.05.72-2.26.93-3.61.63l-7.01-1.55.31-1.41,7.01,1.55c.96.21,1.82.07,2.58-.44.76-.5,1.24-1.22,1.45-2.15.21-.93.07-1.78-.4-2.56-.48-.78-1.19-1.27-2.16-1.49l-7.01-1.55.31-1.41,7.01,1.55c1.35.3,2.35,1,3,2.11.65,1.1.83,2.32.54,3.63Z"/>
            <path class="cls-2" d="M20.64,66.73c-.56-.32-.93-.79-1.09-1.42-.16-.62-.09-1.21.23-1.76.32-.56.79-.93,1.41-1.1.62-.17,1.21-.09,1.77.23.55.32.92.78,1.09,1.4.17.62.1,1.21-.22,1.77-.32.55-.79.92-1.41,1.08-.62.17-1.21.1-1.77-.22Z"/>
          </g>
          <g>
            <path class="cls-4" d="M146.03,64.86h-9.67v-4.75h-27.54v4.75h-9.67v-4.75h-27.52v103.08c0,3.1.63,6.12,1.89,8.96,1.6,3.64,4.94,7,9.63,9.74,3.84,2.21,8.54,3.97,12.95,4.81,16.29,3.14,22.66,5.46,25.22,9.22l1.28,1.84,1.26-1.84c2.58-3.75,8.96-6.07,25.24-9.22,4.4-.85,9.11-2.6,12.95-4.81,4.68-2.73,8.02-6.09,9.63-9.74,1.26-2.84,1.89-5.86,1.89-8.96V60.11h-27.52v4.75ZM172.01,163.19c0,2.87-.6,5.71-1.76,8.34-3.23,7.32-13.6,12.16-21.46,13.67-15.84,3.04-23.16,5.41-26.21,9.84-3.04-4.43-10.37-6.79-26.21-9.84-7.86-1.51-18.22-6.34-21.46-13.67-1.16-2.63-1.76-5.47-1.76-8.34v-77.62h98.84v77.62ZM147.56,61.65h24.45v22.84h-98.84v-22.84h24.45v4.76h12.75v-4.76h24.45v4.76h12.75v-4.76Z"/>
            <path class="cls-5" d="M73.16,85.57v77.62c0,2.87.6,5.71,1.76,8.34,3.23,7.32,13.6,12.16,21.46,13.67,15.84,3.04,23.16,5.41,26.21,9.84,3.04-4.43,10.37-6.79,26.21-9.84,7.86-1.51,18.22-6.34,21.46-13.67,1.16-2.63,1.76-5.47,1.76-8.34v-77.62h-98.84Z"/>
            <path class="cls-5" d="M142.95,57.05v4.75h-3.53v-4.75h-33.66v4.75h-3.54v-4.75h-33.66v106.13c0,3.53.72,6.96,2.15,10.19,1.87,4.23,5.64,8.09,10.89,11.15,4.12,2.39,9.2,4.27,13.9,5.18,14.99,2.88,21.3,5.03,23.29,7.94l1.28,1.84,2.52,3.67,2.52-3.67,1.28-1.84c1.99-2.91,8.31-5.05,23.27-7.94,4.73-.91,9.8-2.8,13.92-5.18,5.25-3.06,9.02-6.92,10.89-11.15,1.43-3.23,2.15-6.66,2.15-10.19V57.05h-33.66ZM173.55,163.19c0,3.1-.63,6.12-1.89,8.96-1.6,3.64-4.94,7-9.63,9.74-3.84,2.21-8.54,3.97-12.95,4.81-16.29,3.14-22.66,5.46-25.24,9.22l-1.26,1.84-1.28-1.84c-2.56-3.75-8.94-6.07-25.22-9.22-4.4-.85-9.11-2.6-12.95-4.81-4.68-2.73-8.02-6.09-9.63-9.74-1.26-2.84-1.89-5.86-1.89-8.96V60.11h27.52v4.75h9.67v-4.75h27.54v4.75h9.67v-4.75h27.52v103.08Z"/>
            <polygon class="cls-6" points="134.81 61.65 110.36 61.65 110.36 66.41 97.61 66.41 97.61 61.65 73.16 61.65 73.16 66.41 73.16 84.49 172.01 84.49 172.01 66.41 172.01 61.65 147.56 61.65 147.56 66.41 134.81 66.41 134.81 61.65"/>
            <g>
              <path class="cls-4" d="M84.96,71.26l-2.13,5.07c-.17.43-.41,1.11-.72,2l-.69-2-2.13-5.07h-1.63l3.69,8.91h1.54l3.69-8.91h-1.63Z"/>
              <path class="cls-4" d="M95.09,78.78v-2.62h5.01v-1.37h-5.01v-2.17h5.31v-1.37h-6.92v8.89h7.11v-1.37h-5.51Z"/>
              <path class="cls-4" d="M113.63,77.57c.56-.28,1.02-.67,1.34-1.19.33-.54.48-1.11.48-1.73,0-.98-.35-1.8-1.02-2.43-.67-.63-1.65-.95-2.91-.95h-3.73v8.89h1.58v-2.1h1.28c.69,0,1.15-.02,1.43-.02l1.54,2.13h1.95l-1.95-2.58ZM113.19,76.09c-.39.39-.91.59-1.58.59h-2.23v-4.06h2.26c.65,0,1.17.2,1.56.59s.59.87.59,1.43-.2,1.06-.59,1.45Z"/>
              <path class="cls-4" d="M122.87,71.26v8.89h1.58v-8.89h-1.58Z"/>
              <path class="cls-4" d="M131.48,71.26v1.37h3.14v7.53h1.58v-7.53h3.14v-1.37h-7.87Z"/>
              <path class="cls-4" d="M149.89,71.26h-1.5l-4.01,8.89h1.6l.72-1.52h4.9l.69,1.52h1.6l-4.01-8.89ZM147.26,77.35l1.02-2.26c.28-.59.56-1.3.87-2.13l.13.35c.07.22.2.5.35.85.15.37.3.67.41.93l1,2.26h-3.77Z"/>
              <path class="cls-4" d="M167.24,76.51c-.19-.33-.46-.59-.78-.8-.35-.2-.69-.37-1.04-.48-.37-.11-.78-.24-1.24-.39-.65-.17-1.13-.33-1.43-.48-.3-.17-.46-.41-.46-.74,0-.24.11-.46.3-.63.19-.17.39-.28.63-.35.22-.04.46-.09.69-.09.91,0,1.76.26,2.54.74l.61-1.21c-.93-.65-2-.95-3.14-.95-.89,0-1.65.22-2.3.65-.63.46-.93,1.06-.93,1.87,0,.33.06.63.19.91s.28.5.48.67.46.35.78.5c.33.13.61.26.87.33.28.09.61.17.98.28.39.11.69.2.91.24.22.07.43.2.63.37.22.17.3.39.3.65,0,.39-.2.69-.56.91-.39.24-.85.35-1.34.35-1.13,0-2.1-.35-2.97-1.04l-.61,1.21c.91.85,2.1,1.28,3.56,1.28.98,0,1.82-.24,2.52-.69.72-.48,1.08-1.15,1.08-2.02,0-.41-.09-.78-.26-1.08Z"/>
            </g>
            <g>
              <g>
                <path class="cls-8" d="M165.07,116.84c-9.15,8-18.39,10.97-19.52,11.3,1.65-.82,21.38-10.84,21.38-21.75-2.43,3.1-6.03,6.96-11.06,10.54-3.36,2.41-6.61,4.12-9.37,5.36,2.21-1.04,6.25-3.36,9.61-7.87,4.86-6.55,5.07-13.49,5.05-15.87-2.23,5.27-6.09,11.75-12.79,16.68-.82.59-1.63,1.13-2.43,1.63,1.45-1.15,4.64-3.95,6.31-8.72,2.52-7.22-.35-13.49-.98-14.79.04,2.58-.22,7.13-2.58,12.08-1.37,2.84-3.01,4.97-4.38,6.44.74-1.65,1.61-4.19,1.65-7.35.11-6.64-3.45-11.3-4.64-12.75.65,3.25,1.13,7.7.41,12.86-.28,2.04-.69,3.88-1.17,5.51,0-1.71-.24-4.1-1.32-6.68-2.69-6.48-8.59-9.2-10.17-9.87,1.52,2.69,3.04,5.96,4.27,9.8.52,1.67.95,3.27,1.28,4.79-.82-1.45-2.75-4.32-6.35-6.44-4.51-2.69-8.93-2.58-10.56-2.45,6.55,3.3,10.19,7.61,11.91,10,4.84,6.7,8.98,18.13,4.36,27.63-1.21,2.52-2.73,4.27-3.75,5.29-.19-.33-.39-.65-.56-.98-.2-.33-.37-.65-.56-.98.3.22.59.48.89.69.41-2.56.04-4.6-1.21-6.83l1.63,1.11c-.52-3.04-2.15-4.97-4.36-6.9.98.15,1.91.46,2.86.67-1.99-3.25-5.07-3.93-8.57-4.23.78-.48,1.56-.98,2.34-1.45-4.94-.41-13.14-.91-12.08,6.42-3.4.98-5.47,3.49-2.65,6.59,0-.13-.13-.28-.02-.41,1.24-1.67,4.34-1.34,6.18-1.34.02,0,.02-.02.02.04,0,.17-.5.56-.26.78.07.09.52.61.59.95.07.33-.3,1.04-.39,1.17-5.01,5.83-8.57,14.96-7.68,22.71.85-1.26,1.52-2.58,2.19-3.93-.48,2.75-.89,5.47-1.86,8.09,1.08-.28,1.8-.8,2.49-1.71-2.47,7.07-10.73,10.84-10.54,13.32.22-.22.43-.43.65-.65.17.04.56.11,1.02-.06.43-.15.69-.43.82-.56-.15.85-.3,1.56.22,2.3.37-.3.72-.63,1.08-.95,1.02,0,1.17-1.02,1.76-1.6-.28,1.02-.48,1.78.26,2.6.48-.39.95-.8,1.43-1.19.2.02.46,0,.61-.07.5-.22.76-.54.93-1.06,1.08-.33,2.02-.3,2.97.37.33.22.46.63.59,1,1.15-1.5.35-3.21-1.32-3.67-1.74-1.84,1.71-6.16,2.91-7.7.02,1.17-.37,1.97-.95,2.95,1.54-.63,2.56-1.6,3.56-2.95,2.62,2.52,5.14,4.99,8.18,6.98,1.95-.15,3.62.24,5.07,1.02-2.75-.07-5.83-.67-7,2.49-.39-1.28-.07-2.19.69-3.19-1.39-.93-4.06-1.26-5.25-.54-2.08,1.28-2.58,3.8-1.43,5.51.39.56.82.04,1.24.15-.28-1.37-.11-2.67.95-3.51.5-.39,1.34-.39,1.34-.39-.33.28-.63.48-.85.91-.46,1-.59,2.3.39,3.04.15.15.46.13.65.11,7.13-.11,14.27-.07,21.4-.22.35,0,.89.11,1-.33.19-.67,1.13-1.5,1.15-1.5,2.3-.8,4.23-1.45,5.47-3.8,2.65-9.54-9.65-13.73-1.71-15.38-.15.3-.46.5-.56.82,1.91.04,3.45-1.11,2.93-3.23-.22-.89-.78-1.73-.74-2.67,1.52-3.58,3.84-2.23.91-6.94-.43-.8-1.32,2.45-2.26,3.04.11-.61.37-1.04.67-1.56-1.63.85-3.36,1.24-3.4,3.82-.04,2.71,3.45,4.97-1.52,4.81-5.73,5.57,6.25,7.46,3.43,15.96-.54.67-1.28.87-2.1.74-.59-.59-.22-1.45-.35-2.23-1-6.03-3.62-10.76-9.04-13.36,2.93-.87,5.23-2.39,7.16-4.84-2.28.22-4.47.22-6.72-.2,4.64-.26,8.7-1.39,11.02-5.9-2.93.24-5.62-.2-8.44-1,8.7.85,19.91-2.69,22.58-9.22-6.18,2.69-13.32,5.66-20.08,4.68,7.68-1.06,19.39-4.42,22.9-13.53-3.62,3.12-10.28,7-19.54,7.46,0,0,19.76-4.4,21.75-15.92ZM112.09,130.14s-.07-.07-.11-.09c.61-1.69,1.54-1.84,3.14-1.82-1.02.65-2.02,1.28-3.04,1.91Z"/>
                <path class="cls-5" d="M112.09,130.14s-.07-.06-.11-.1c.59-1.68,1.53-1.84,3.13-1.8-1.01.63-2.01,1.26-3.02,1.9Z"/>
              </g>
              <g>
                <polygon class="cls-4" points="121.96 112.7 109.69 114.22 114.71 117.45 108.75 117.11 112.52 121.73 106.96 119.57 109.13 125.13 104.5 121.36 104.84 127.31 101.62 122.29 100.09 131.68 98.57 122.29 95.34 127.31 95.68 121.36 91.06 125.13 93.22 119.57 87.66 121.73 91.43 117.11 85.48 117.45 90.5 114.22 78.23 112.7 90.5 111.17 85.48 107.95 91.43 108.29 87.66 103.66 93.22 105.83 91.06 100.26 95.68 104.04 95.34 98.08 98.57 103.1 100.09 93.71 101.62 103.1 104.84 98.08 104.5 104.04 109.13 100.27 106.96 105.83 112.52 103.66 108.75 108.29 114.71 107.95 109.69 111.17 121.96 112.7"/>
                <circle class="cls-5" cx="100.09" cy="112.7" r="4.77"/>
              </g>
            </g>
          </g>
        </g>
      </g>
    </g>
  </g>
</svg>